<svg xmlns="http://www.w3.org/2000/svg" xmlns:xlink="http://www.w3.org/1999/xlink" preserveAspectRatio="xMidYMid" width="44" height="44" viewBox="0 0 44 44">
  <defs>
    <style>
      .cls-1 {
        fill: #fff;
        fill-rule: evenodd;
      }
    </style>
  </defs>
  <path d="M34.000,40.000 L11.000,40.000 C9.895,40.000 9.000,39.105 9.000,38.000 L9.000,21.000 C9.000,19.895 9.895,19.000 11.000,19.000 L13.000,19.000 L13.000,13.500 C13.000,8.253 17.253,4.000 22.500,4.000 C27.747,4.000 32.000,8.253 32.000,13.500 L32.000,19.000 L34.000,19.000 C35.105,19.000 36.000,19.895 36.000,21.000 L36.000,38.000 C36.000,39.105 35.105,40.000 34.000,40.000 ZM30.000,13.000 C30.000,9.134 26.866,6.000 23.000,6.000 L22.000,6.000 C18.134,6.000 15.000,9.134 15.000,13.000 L15.000,19.000 L30.000,19.000 L30.000,13.000 ZM34.000,22.000 C34.000,21.448 33.552,21.000 33.000,21.000 L12.000,21.000 C11.448,21.000 11.000,21.448 11.000,22.000 L11.000,37.000 C11.000,37.552 11.448,38.000 12.000,38.000 L33.000,38.000 C33.552,38.000 34.000,37.552 34.000,37.000 L34.000,22.000 Z" class="cls-1"/>
</svg>
