<svg id="Layer_1" data-name="Layer 1" xmlns="http://www.w3.org/2000/svg" xmlns:xlink="http://www.w3.org/1999/xlink" viewBox="0 0 478.33 478.33"><defs><linearGradient id="linear-gradient" x1="167.37" y1="-291.99" x2="307.59" y2="561.14" gradientUnits="userSpaceOnUse"><stop offset="0" stop-opacity="0"/><stop offset="0.88" stop-opacity="0.8"/><stop offset="0.97"/></linearGradient><linearGradient id="linear-gradient-2" x1="272.65" y1="-244.6" x2="225.35" y2="1028.06" xlink:href="#linear-gradient"/><linearGradient id="linear-gradient-3" x1="-27.38" y1="88.5" x2="1060.56" y2="669.64" gradientUnits="userSpaceOnUse"><stop offset="0" stop-color="#fff" stop-opacity="0"/><stop offset="0.84" stop-color="#fff" stop-opacity="0.84"/><stop offset="0.97" stop-color="#fff"/></linearGradient><linearGradient id="linear-gradient-4" x1="314.89" y1="-166.72" x2="290.94" y2="477.54" xlink:href="#linear-gradient"/><linearGradient id="linear-gradient-5" x1="325.45" y1="192.58" x2="318.69" y2="205.34" xlink:href="#linear-gradient"/><linearGradient id="linear-gradient-6" x1="303.63" y1="178.69" x2="299.69" y2="259.22" gradientUnits="userSpaceOnUse"><stop offset="0" stop-opacity="0"/><stop offset="0.5" stop-opacity="0.19"/><stop offset="0.55" stop-opacity="0.24"/><stop offset="0.97"/></linearGradient><linearGradient id="linear-gradient-7" x1="301.9" y1="156.67" x2="298.04" y2="260.64" xlink:href="#linear-gradient"/><linearGradient id="linear-gradient-8" x1="303.98" y1="176.38" x2="301.3" y2="203.41" xlink:href="#linear-gradient-6"/><linearGradient id="linear-gradient-9" x1="290.13" y1="166.91" x2="293.91" y2="166.91" gradientUnits="userSpaceOnUse"><stop offset="0" stop-color="#ecc4d7"/><stop offset="0.42" stop-color="#efd4d1"/><stop offset="1" stop-color="#f2eac9"/></linearGradient><linearGradient id="linear-gradient-10" x1="311.32" y1="167.32" x2="314.68" y2="167.32" xlink:href="#linear-gradient-9"/><linearGradient id="linear-gradient-11" x1="238.65" y1="186.32" x2="239.49" y2="272.48" xlink:href="#linear-gradient"/><linearGradient id="linear-gradient-12" x1="302.77" y1="183.54" x2="303.37" y2="191" xlink:href="#linear-gradient-9"/><linearGradient id="linear-gradient-13" x1="302.39" y1="151.01" x2="302.82" y2="187.33" xlink:href="#linear-gradient-9"/><linearGradient id="linear-gradient-14" x1="278.78" y1="208.06" x2="293.05" y2="211.63" xlink:href="#linear-gradient-6"/><linearGradient id="linear-gradient-15" x1="296.9" y1="258.68" x2="295.89" y2="285.85" xlink:href="#linear-gradient-9"/><linearGradient id="linear-gradient-16" x1="321.15" y1="252.45" x2="320.29" y2="275.58" xlink:href="#linear-gradient-9"/><linearGradient id="linear-gradient-17" x1="324.85" y1="199.05" x2="321.66" y2="211.25" xlink:href="#linear-gradient"/><linearGradient id="linear-gradient-18" x1="311.84" y1="199.59" x2="298.79" y2="197.71" xlink:href="#linear-gradient-9"/><linearGradient id="linear-gradient-19" x1="309.4" y1="194.78" x2="309.33" y2="196.84" gradientTransform="translate(-31.79 62.89) rotate(-11.04)" xlink:href="#linear-gradient"/><linearGradient id="linear-gradient-20" x1="294.06" y1="193.89" x2="293.9" y2="196.21" xlink:href="#linear-gradient-3"/><linearGradient id="linear-gradient-21" x1="269.27" y1="235.31" x2="281.85" y2="235.31" xlink:href="#linear-gradient-9"/><linearGradient id="linear-gradient-22" x1="306.8" y1="213.3" x2="310.93" y2="285.75" xlink:href="#linear-gradient-3"/><linearGradient id="linear-gradient-23" x1="297.2" y1="246.73" x2="274.68" y2="247.58" xlink:href="#linear-gradient"/><linearGradient id="linear-gradient-24" x1="329.56" y1="212.09" x2="294.83" y2="274.12" gradientUnits="userSpaceOnUse"><stop offset="0" stop-opacity="0"/><stop offset="0.91" stop-opacity="0.8"/><stop offset="1"/></linearGradient></defs><title>59. Times</title><circle cx="239.16" cy="239.16" r="239.16" fill="#fda268"/><path d="M254.67,19.5C133.35,19.5,35,117.85,35,239.16s98.35,219.67,219.67,219.67,219.67-98.35,219.67-219.67S376,19.5,254.67,19.5ZM230.82,439.58C120.14,426.41,41.09,326,54.26,215.32S167.83,25.58,278.52,38.75,468.25,152.33,455.08,263,341.51,452.75,230.82,439.58Z" transform="translate(-15.51)" fill="url(#linear-gradient)"/><path d="M455.08,263C441.91,373.7,341.51,452.75,230.82,439.58S41.09,326,54.26,215.32,167.83,25.58,278.52,38.75,468.25,152.33,455.08,263Z" transform="translate(-15.51)" fill="#fda268"/><path d="M455.08,263C441.91,373.7,341.51,452.75,230.82,439.58S41.09,326,54.26,215.32,167.83,25.58,278.52,38.75,468.25,152.33,455.08,263Z" transform="translate(-15.51)" fill="url(#linear-gradient-2)"/><path d="M365.36,70.34a202.87,202.87,0,0,0-28.51-5.47C226.16,51.7,125.76,130.75,112.59,241.44a201.84,201.84,0,0,0,89.73,192.67C106.92,408.62,42.25,316.24,54.26,215.32,67.43,104.63,167.83,25.58,278.52,38.75A201.07,201.07,0,0,1,365.36,70.34Z" transform="translate(-15.51)" fill="url(#linear-gradient-3)"/><path d="M242.57,231.13V88.91s2-7.6,8.2-3.1l1.94,143.31,14.6-.28s7.11-35.19,9.64-39.13,14.5-8.23,14.5-8.23-.1-5.29-1.39-6.84-4.38-4.78-3.81-6.19,1.21-2.74,1.21-2.74-1.78-7.82-1.07-9.93c0,0,3.27-8.12,3.67-8.68a2.6,2.6,0,0,1,3.93-.7c2.3,1.45,6.83,10.16,6.83,10.16s5.5,5,5.93,10.14S302,180.35,302,180.35L310,183.7s19,8.8,20.45,11.06-.73,6-.73,6l-18.68.31-6.66,9.84.88,15.3,12.26,6.56s1.83,3.66,1.34,4.51,43.59,1.28,43.59,1.28v5.53s-.35,2.72-3.92,2.83-36.35,0-36.35,0l-2.52,15,.11,9.29,9,9.49s.54,4-1.9,3.71-14.35-6.12-14.49-10.72v-16l-1.95-12.39-8.36-6.11-6.43,3.62-3,19.52.8,14.45v4L289,290.41s-2.61.47-2.61-4.41,3.72-10.51,3.72-10.51a22.59,22.59,0,0,0-3.72-6.58c-2.25-2.43-7.32-27.4-7.32-27.4L244.67,244Z" transform="translate(-15.51)" fill="url(#linear-gradient-4)"/><path d="M302.05,281.34a9.91,9.91,0,0,1-2.05,4.33,28.92,28.92,0,0,1-3.41,3.59,7.8,7.8,0,0,1-2.68,1.81,2.81,2.81,0,0,1-3-.66,2.92,2.92,0,0,1,0-3.32,11.67,11.67,0,0,1,2.51-2.5c2.16-1.83,3.62-4.15,5.56-6.15C301.28,276.09,302.39,279.29,302.05,281.34Z" transform="translate(-15.51)" fill="#fda268"/><path d="M317.79,273.7a11.57,11.57,0,0,0,4.07,3.79,32.83,32.83,0,0,0,5.21,2.41,8.71,8.71,0,0,0,3.67.81,3.27,3.27,0,0,0,3-2,3.4,3.4,0,0,0-1.46-3.57,13.17,13.17,0,0,0-3.77-1.61c-3.11-1.06-5.68-2.94-8.63-4.27C316.39,267.7,316.56,271.63,317.79,273.7Z" transform="translate(-15.51)" fill="#fda268"/><path d="M313,201.08s17.9,7.17,20.85,7,5.59-2.68,4.64-6.09-26.07-16.19-26.07-16.19Z" transform="translate(-15.51)" fill="#fda268"/><path d="M311.57,201.08s17.9,7.17,20.84,7,5.59-2.68,4.64-6.09S311,185.76,311,185.76Z" transform="translate(-15.51)" fill="url(#linear-gradient-5)"/><path d="M287,224.36a154.2,154.2,0,0,1,.4-15.8c.53-7.36-1.77-16.28,3-21.91,1.4-1.65,8.47-2.92,10.64-3,5.14-.06,11,.73,15,4.56,3.11,3,.78,10.32.43,14.63-.66,8.33.32,11.21.41,17.37.06,4.64-.09,10.19-3.83,13-2.06,1.51-7.23,1.39-9.78,1.56-3.5.25-9.87,1.12-13.08-.56C287.16,232.62,287.11,227.31,287,224.36Z" transform="translate(-15.51)" fill="#fda268"/><path d="M287,224.36a154.2,154.2,0,0,1,.4-15.8c.53-7.36-1.77-16.28,3-21.91,1.4-1.65,8.47-2.92,10.64-3,5.14-.06,11,.73,15,4.56,3.11,3,.78,10.32.43,14.63-.66,8.33.32,11.21.41,17.37.06,4.64-.09,10.19-3.83,13-2.06,1.51-7.23,1.39-9.78,1.56-3.5.25-9.87,1.12-13.08-.56C287.16,232.62,287.11,227.31,287,224.36Z" transform="translate(-15.51)" fill="url(#linear-gradient-6)"/><path d="M288.52,197.1l1.09,12.46a14.38,14.38,0,0,0,11.51,12.95,7.83,7.83,0,0,0,1,.14c3.64.28,9.83,3.33,9.83,3.33l-14.34,4.46-7.48-2.25L287,229l.34-18.68Z" transform="translate(-15.51)" opacity="0.31" fill="url(#linear-gradient-7)"/><path d="M297.66,186.92a6.61,6.61,0,0,0,2.21,4.56,6,6,0,0,0,3.71,1.07,4.82,4.82,0,0,0,3.94-1.64c1-1.44.69-3.43.23-5.15a6,6,0,0,0-1.74-3.28c-1.45-1.14-4.53-1.24-6.24-.65C297.81,182.51,297.45,185.16,297.66,186.92Z" transform="translate(-15.51)" fill="#fda268"/><path d="M297.66,186.92a6.61,6.61,0,0,0,2.21,4.56,6,6,0,0,0,3.71,1.07,4.82,4.82,0,0,0,3.94-1.64c1-1.44.69-3.43.23-5.15a6,6,0,0,0-1.74-3.28c-1.45-1.14-4.53-1.24-6.24-.65C297.81,182.51,297.45,185.16,297.66,186.92Z" transform="translate(-15.51)" fill="url(#linear-gradient-8)"/><path d="M293.76,170.21c0-1,1.15-8-2.74-6.48-1.35.5-.82,2-.57,3.29C290.84,169.05,293.78,170.7,293.76,170.21Z" transform="translate(-15.51)" fill="url(#linear-gradient-9)"/><path d="M311.52,170.52c.1-1-1.37-8,2.39-6.21,1.3.63.64,2,.27,3.34C313.62,169.63,311.46,171,311.52,170.52Z" transform="translate(-15.51)" fill="url(#linear-gradient-10)"/><circle cx="239.16" cy="239.16" r="12.95" fill="#fda268"/><circle cx="239.16" cy="239.16" r="12.95" fill="url(#linear-gradient-11)"/><path d="M238.74,81.21h0a4.71,4.71,0,0,1,4.71,4.71V242.78a0,0,0,0,1,0,0H234a0,0,0,0,1,0,0V85.92a4.71,4.71,0,0,1,4.71-4.71Z" fill="#25233a"/><rect x="234.03" y="234.37" width="114.85" height="8.41" rx="4.21" fill="#25233a"/><path d="M299.63,186.4a6.29,6.29,0,0,0,.49,2.79,5.17,5.17,0,0,0,1,1.23,3.42,3.42,0,0,0,1.79,1.14,2.46,2.46,0,0,0,2.11-.78,4.41,4.41,0,0,0,1-2.06,15.72,15.72,0,0,0,.16-5.08l-.22-2.83a7,7,0,0,0-.94-3.55,3.45,3.45,0,0,0-2.37-1.41C297.72,175.23,299.56,183.64,299.63,186.4Z" transform="translate(-15.51)" fill="url(#linear-gradient-12)"/><path d="M312.58,158.25s1.37,19.58-8.58,22.1-11.35-14-11.63-19.76,4.2-10.59,11.63-9.67C307.43,151.35,311.85,153.59,312.58,158.25Z" transform="translate(-15.51)" fill="url(#linear-gradient-13)"/><path d="M296,146.4c1.92-2.85,6.31-3.16,9.23-1.35,1.34.84,2.47,2,3.95,2.59,1.06.41,2.24.47,3.33.81a6.38,6.38,0,0,1,2.09,11c-1.09.88-2.44,1.39-3.61,2.16,0-1.18-1.28-2.32-2.26-3a6.52,6.52,0,0,0-3.37-1l.31.67a8.38,8.38,0,0,1-5.24-.07c-1.89-.65-3.89-2-5.7-1.14-.88.42-1.77,1.33-2.64.89a1.88,1.88,0,0,1-.79-1.5C290.73,152.65,293.75,149.66,296,146.4Z" transform="translate(-15.51)" fill="#25233a"/><path d="M290.41,186.65a13.24,13.24,0,0,0-8.34,9.15c-1.78,7.14-8.19,35.35-8.19,35.35s6.16.7,8.26.28l6.11-25S288,191.59,290.41,186.65Z" transform="translate(-15.51)" fill="#fda268"/><path d="M290.41,186.65a13.24,13.24,0,0,0-8.34,9.15c-1.78,7.14-8.19,35.35-8.19,35.35s6.16.7,8.26.28l6.11-25S288,191.59,290.41,186.65Z" transform="translate(-15.51)" fill="url(#linear-gradient-14)"/><path d="M290.12,285.91a2.9,2.9,0,0,0,.36,1.48,2.72,2.72,0,0,0,2.27,1.11,6.12,6.12,0,0,0,4.21-1.76,13.2,13.2,0,0,0,2.66-3.81,8.85,8.85,0,0,0,.93-2.43c.39-2-.42-4.1-1.21-6,.29.72-3.84,1.25-4.22,1.25-1.62,0-1.4,1-1.94,2.34C292.16,280.65,290.1,283,290.12,285.91Z" transform="translate(-15.51)" fill="#25233a"/><path d="M293.41,271l2,5.72s1.26,2.35,3.18.61c0,0,.64-.65.77-2.88l-1.7-5.08Z" transform="translate(-15.51)" fill="url(#linear-gradient-15)"/><path d="M331.09,235.35c-1.32,10.82-6.28,26.35-6.5,26.35-1.09-.31-6,.93-7.11.51-.58-.23-.92-11.75-.6-17.75.11-2,.11-8.11.11-10.09l-13.71.4-2.73.17a43.52,43.52,0,0,1-.63,7.71c-1.46,10.7-2.95,16-2.43,26.75-.07,1.75-3.79,2.47-5.06,1.12-5.69-6.08-6.07-12.51-7.24-20.76-.78-5.5-3.34-25.61,3.76-27.11a11.41,11.41,0,0,1,3.19-.26c1.68.12,4.93.21,6,1.64h0c.36.18,7.54,3.78,13.6,1.94l6.4-6.6a6.34,6.34,0,0,1,7.59-1.83c2.5,1.18,4.4,4,5.2,7.23S331.52,231.82,331.09,235.35Z" transform="translate(-15.51)" fill="#fda268"/><path d="M317,269.85a3.13,3.13,0,0,0,.1,1.33,2.79,2.79,0,0,0,.85,1.05,25.66,25.66,0,0,0,10.49,5.56,4,4,0,0,0,2.55,0,2.93,2.93,0,0,0,1.25-3.7,7.55,7.55,0,0,0-2.81-3.18,11.69,11.69,0,0,1-3.16-2.9,4.47,4.47,0,0,0-1.37-1.76,3.25,3.25,0,0,0-1.52-.24c-1.17,0-4.59-.53-5.54.09S317.06,268.61,317,269.85Z" transform="translate(-15.51)" fill="#25233a"/><path d="M317.63,262.21l.56,4.78a9.33,9.33,0,0,0,3.06,1.84,1.88,1.88,0,0,0,2.43-1.8v-.39l.28-5Z" transform="translate(-15.51)" fill="url(#linear-gradient-16)"/><path d="M337.34,202l-26.89-5.63-1.22,7.28s22.19,9.62,25.85,6.8S338.94,203.81,337.34,202Z" transform="translate(-15.51)" fill="#fda268"/><path d="M337.34,202l-26.89-5.63-1.22,7.28s22.19,9.62,25.85,6.8S338.94,203.81,337.34,202Z" transform="translate(-15.51)" fill="url(#linear-gradient-17)"/><path d="M310.29,197.25s-8.9-4-12.31-3.76-3.35,2.67-3.35,2.67l0,2.66a2.65,2.65,0,0,0,1.57,2.49,5.84,5.84,0,0,0,3,.52c2.17-.33,2.61-1.44,2.61-1.44s1.93,1.94,3.12,1.49a6.88,6.88,0,0,1,4.65-.22Z" transform="translate(-15.51)" fill="url(#linear-gradient-18)"/><polygon points="292.76 196.01 291.69 201.94 293.78 202.23 294.71 196.46 292.76 196.01" fill="#25233a"/><polygon points="292.76 196.01 292.44 197.86 294.41 198.19 294.71 196.46 292.76 196.01" fill="#25233a"/><rect x="307.45" y="195.32" width="3.83" height="1.04" transform="translate(27.74 -55.64) rotate(11.04)" fill="#fda268"/><rect x="307.45" y="195.32" width="3.83" height="1.04" transform="translate(27.74 -55.64) rotate(11.04)" fill="url(#linear-gradient-19)"/><path d="M293.76,158.86a54.35,54.35,0,0,1-.87,7.84,7.22,7.22,0,0,0-.22-2.12,1.55,1.55,0,0,0-.38-.78.62.62,0,0,0-.8-.1c.13-1.4-.43-2.78-.39-4.19a4.89,4.89,0,0,1,1-2.84.25.25,0,0,1,.12-.11.27.27,0,0,1,.19,0A2.15,2.15,0,0,1,293.76,158.86Z" transform="translate(-15.51)" fill="#25233a"/><path d="M311.83,167.78l.67-3.16c0-.19.1-.42.29-.48s.21,0,.29-.09a.4.4,0,0,0,.08-.16l.81-2.57c.12-.4.24-.79.33-1.2a1.1,1.1,0,0,0,0-.57.94.94,0,0,0-.43-.51,1.56,1.56,0,0,0-2.23.52,2,2,0,0,0-.16,1.79A18.54,18.54,0,0,1,311.83,167.78Z" transform="translate(-15.51)" fill="#25233a"/><polygon points="292.08 194.96 292.42 194.76 295.61 195.37 295.84 195.69 292.08 194.96" fill="#fda268"/><polygon points="292.08 194.96 292.42 194.76 295.61 195.37 295.84 195.69 292.08 194.96" fill="url(#linear-gradient-20)"/><path d="M272,231.84a3.48,3.48,0,0,0-2.51,2,6.25,6.25,0,0,0-.05,3.1,5.52,5.52,0,0,0,.44,1.64,1.34,1.34,0,0,0,1.19.83c.73-.07,1.15-1.07,1.19-1.95a19.39,19.39,0,0,1,0-2.64,19.85,19.85,0,0,0,0,3.27,1.73,1.73,0,0,0,.42,1.18.78.78,0,0,0,.83.05,2.38,2.38,0,0,0,1.13-1.8,8,8,0,0,0-.06-2.34,4.61,4.61,0,0,1,.07,1.7,3.36,3.36,0,0,0,.17,1.68c.24.5.83.8,1.21.46a1.59,1.59,0,0,0,.4-1,13.18,13.18,0,0,0,.15-2.81,7,7,0,0,0,.14,2.88c.32.89,1.17,1.6,1.93,1.27a2.2,2.2,0,0,0,1-1.85c.08-.77,0-1.55,0-2.32a1.12,1.12,0,0,1,.08-.42c.21-.4.71-.21,1.1-.26s.91-.67,1-1.29a5.25,5.25,0,0,0-.14-1.89,41.09,41.09,0,0,1-5.32-.22A12.63,12.63,0,0,0,272,231.84Z" transform="translate(-15.51)" fill="url(#linear-gradient-21)"/><path d="M331.24,235.35c-1.32,10.82-6.28,26.35-6.5,26.35a11.94,11.94,0,0,0-3.14.23c-1.64.24-3.39.51-4,.28-.05,0-.09-.11-.14-.28-.47-1.74-.73-11.24-.49-16.86l0-.61c.11-2,.1-8.11.1-10.09l-13.7.4-2.73.17a43.52,43.52,0,0,1-.63,7.71c-1.46,10.7-2.95,16-2.43,26.75-.05,1.13-1.61,1.83-3.05,1.82a2.77,2.77,0,0,1-2-.7c-5.69-6.08-6.07-12.51-7.24-20.76-.78-5.5-3.34-25.61,3.76-27.11a11.41,11.41,0,0,1,3.19-.26c1.68.12,4.93.21,6,1.64h0c.36.18,7.54,3.78,13.6,1.94l6.4-6.6a6.34,6.34,0,0,1,7.59-1.83c2.5,1.18,4.4,4,5.2,7.23S331.67,231.82,331.24,235.35Z" transform="translate(-15.51)" fill="url(#linear-gradient-22)"/><path d="M294.59,271.22a2.77,2.77,0,0,1-2-.7c-5.69-6.08-6.07-12.51-7.24-20.76-.78-5.5-3.34-25.61,3.76-27.11A23.8,23.8,0,0,0,287,237.76C288.67,246,294.59,271.22,294.59,271.22Z" transform="translate(-15.51)" fill="url(#linear-gradient-23)"/><path d="M321.6,261.93c-1.64.24-3.39.51-4,.28-.05,0-.09-.11-.14-.28-.47-1.74-.73-11.24-.49-16.86l0-.61c.11-2,.1-8.11.1-10.09l-16.43.57-.67-5.72s9.1,2.25,11.82,1.91,5.8-3,5.8-3,3.78-5.25,4.9,0C323.61,233,321.82,258.83,321.6,261.93Z" transform="translate(-15.51)" fill="url(#linear-gradient-24)"/><rect x="234.03" y="417.86" width="9.42" height="16.05" rx="4.71" fill="#fff"/><rect x="234.03" y="45.82" width="9.42" height="16.05" rx="4.71" fill="#fff"/><rect x="234.03" y="417.86" width="9.42" height="16.05" rx="4.71" fill="#fff"/><rect x="118" y="100.31" width="9.42" height="16.05" rx="4.71" transform="translate(-56.17 118.5) rotate(-45)" fill="#fff"/><rect x="381.07" y="363.38" width="9.42" height="16.05" rx="4.71" transform="translate(-165.13 381.57) rotate(-45)" fill="#fff"/><rect x="63.52" y="231.84" width="9.42" height="16.05" rx="4.71" transform="translate(-187.15 308.1) rotate(-90)" fill="#fff"/><rect x="435.56" y="231.84" width="9.42" height="16.05" rx="4.71" transform="translate(184.89 680.13) rotate(-90)" fill="#fff"/><rect x="118" y="363.38" width="9.42" height="16.05" rx="4.71" transform="translate(-68.65 720.8) rotate(-135)" fill="#fff"/><rect x="381.07" y="100.31" width="9.42" height="16.05" rx="4.71" transform="translate(566.46 457.72) rotate(-135)" fill="#fff"/></svg>