<svg xmlns="http://www.w3.org/2000/svg" xmlns:xlink="http://www.w3.org/1999/xlink" preserveAspectRatio="xMidYMid" width="44" height="44" viewBox="0 0 44 44">
  <defs>
    <style>
      .cls-1 {
        fill: #fff;
        fill-rule: evenodd;
      }
    </style>
  </defs>
  <g>
    <path d="M36.444,40.000 C34.691,33.661 28.897,29.000 22.000,29.000 C15.103,29.000 9.308,33.661 7.556,40.000 L5.493,40.000 C7.294,32.545 13.991,27.000 22.000,27.000 C30.008,27.000 36.706,32.545 38.507,40.000 L36.444,40.000 Z" class="cls-1"/>
    <path d="M22.000,25.000 C16.477,25.000 12.000,20.523 12.000,15.000 C12.000,9.477 16.477,5.000 22.000,5.000 C27.523,5.000 32.000,9.477 32.000,15.000 C32.000,20.523 27.523,25.000 22.000,25.000 ZM22.000,7.000 C17.582,7.000 14.000,10.582 14.000,15.000 C14.000,19.418 17.582,23.000 22.000,23.000 C26.418,23.000 30.000,19.418 30.000,15.000 C30.000,10.582 26.418,7.000 22.000,7.000 Z" class="cls-1"/>
  </g>
</svg>
